<?xml version="1.0" encoding="utf-8"?>
<!-- Generator: Adobe Illustrator 27.5.0, SVG Export Plug-In . SVG Version: 6.00 Build 0)  -->
<svg version="1.1" id="Layer_1" xmlns="http://www.w3.org/2000/svg" xmlns:xlink="http://www.w3.org/1999/xlink" x="0px" y="0px"
	 viewBox="0 0 100 65" style="enable-background:new 0 0 100 65;" xml:space="preserve">
<style type="text/css">
	.st0{fill:#404040;}
	.st1{fill:#32C787;}
	.st2{fill:#FFFFFF;}
</style>
<g>
	<g>
		<g>
			<path class="st0" d="M20.36,27.03c2.28,0,4.48,0.45,6.56,1.32c2.01,0.85,3.81,2.06,5.36,3.61c1.55,1.55,2.76,3.35,3.61,5.36
				c0.88,2.08,1.32,4.28,1.32,6.56c0,2.28-0.45,4.48-1.32,6.56c-0.85,2.01-2.06,3.81-3.61,5.36c-1.55,1.55-3.35,2.76-5.36,3.61
				c-2.08,0.88-4.28,1.32-6.56,1.32s-4.48-0.45-6.56-1.32c-2.01-0.85-3.81-2.06-5.36-3.61c-1.55-1.55-2.76-3.35-3.61-5.36
				c-0.88-2.08-1.32-4.28-1.32-6.56c0-2.28,0.45-4.48,1.32-6.56c0.85-2.01,2.06-3.81,3.61-5.36c1.55-1.55,3.35-2.76,5.36-3.61
				C15.88,27.48,18.09,27.03,20.36,27.03 M20.36,24.96c-10.45,0-18.92,8.47-18.92,18.92S9.91,62.8,20.36,62.8
				s18.92-8.47,18.92-18.92S30.81,24.96,20.36,24.96L20.36,24.96z"/>
		</g>
		<g>
			<path class="st1" d="M20.36,28.38c2.09,0,4.12,0.41,6.03,1.22c1.85,0.78,3.5,1.9,4.93,3.32c1.42,1.42,2.54,3.08,3.32,4.93
				c0.81,1.91,1.22,3.94,1.22,6.03c0,2.09-0.41,4.12-1.22,6.03c-0.78,1.85-1.9,3.5-3.32,4.93c-1.42,1.42-3.08,2.54-4.93,3.32
				c-1.91,0.81-3.94,1.22-6.03,1.22s-4.12-0.41-6.03-1.22c-1.85-0.78-3.5-1.9-4.93-3.32c-1.42-1.42-2.54-3.08-3.32-4.93
				C5.28,48,4.87,45.97,4.87,43.88c0-2.09,0.41-4.12,1.22-6.03c0.78-1.85,1.9-3.5,3.32-4.93c1.42-1.42,3.08-2.54,4.93-3.32
				C16.24,28.79,18.27,28.38,20.36,28.38 M20.36,26.95c-9.35,0-16.92,7.58-16.92,16.92S11.02,60.8,20.36,60.8
				s16.92-7.58,16.92-16.92S29.71,26.95,20.36,26.95L20.36,26.95z"/>
			<path class="st0" d="M20.36,60.87c-2.29,0-4.52-0.45-6.61-1.34c-2.02-0.86-3.84-2.08-5.4-3.64c-1.56-1.56-2.79-3.38-3.64-5.4
				c-0.89-2.09-1.34-4.32-1.34-6.61c0-2.29,0.45-4.52,1.34-6.61c0.86-2.02,2.08-3.84,3.64-5.4c1.56-1.56,3.38-2.79,5.4-3.64
				c2.09-0.89,4.32-1.34,6.61-1.34s4.52,0.45,6.61,1.34c2.02,0.86,3.84,2.08,5.4,3.64c1.56,1.56,2.79,3.38,3.64,5.4
				c0.89,2.09,1.34,4.32,1.34,6.61c0,2.29-0.45,4.52-1.34,6.61c-0.86,2.02-2.08,3.84-3.64,5.4c-1.56,1.56-3.38,2.79-5.4,3.64
				C24.88,60.42,22.66,60.87,20.36,60.87z M20.36,27.02c-9.3,0-16.86,7.56-16.86,16.86c0,9.3,7.56,16.86,16.86,16.86
				s16.86-7.56,16.86-16.86C37.22,34.58,29.66,27.02,20.36,27.02z M20.36,59.44c-2.1,0-4.14-0.41-6.06-1.22
				c-1.85-0.78-3.52-1.91-4.95-3.34c-1.43-1.43-2.55-3.09-3.34-4.95c-0.81-1.92-1.22-3.96-1.22-6.06c0-2.1,0.41-4.14,1.22-6.06
				c0.78-1.85,1.91-3.52,3.34-4.95c1.43-1.43,3.09-2.55,4.95-3.34c1.92-0.81,3.96-1.22,6.06-1.22s4.14,0.41,6.06,1.22
				c1.85,0.78,3.52,1.91,4.95,3.34c1.43,1.43,2.55,3.09,3.34,4.95c0.81,1.92,1.22,3.96,1.22,6.06c0,2.1-0.41,4.14-1.22,6.06
				c-0.78,1.85-1.91,3.52-3.34,4.95c-1.43,1.43-3.09,2.55-4.95,3.34C24.5,59.03,22.47,59.44,20.36,59.44z M20.36,28.45
				c-2.08,0-4.1,0.41-6.01,1.21c-1.84,0.78-3.49,1.89-4.91,3.31c-1.42,1.42-2.53,3.07-3.31,4.91c-0.8,1.9-1.21,3.92-1.21,6.01
				s0.41,4.1,1.21,6.01c0.78,1.84,1.89,3.49,3.31,4.91c1.42,1.42,3.07,2.53,4.91,3.31c1.9,0.8,3.92,1.21,6.01,1.21
				s4.1-0.41,6.01-1.21c1.84-0.78,3.49-1.89,4.91-3.31c1.42-1.42,2.53-3.07,3.31-4.91c0.8-1.9,1.21-3.92,1.21-6.01
				c0-2.08-0.41-4.1-1.21-6.01c-0.78-1.84-1.89-3.49-3.31-4.91c-1.42-1.42-3.07-2.53-4.91-3.31C24.47,28.85,22.45,28.45,20.36,28.45
				z"/>
		</g>
		<g>
			<path class="st0" d="M20.36,60.22c-0.04,0-0.06-0.03-0.06-0.06V27.87c0-0.04,0.03-0.06,0.06-0.06c0.04,0,0.06,0.03,0.06,0.06
				v32.28C20.43,60.19,20.4,60.22,20.36,60.22z"/>
		</g>
		<g>
			<path class="st0" d="M36.51,44.07H4.22c-0.04,0-0.06-0.03-0.06-0.06s0.03-0.06,0.06-0.06h32.28c0.04,0,0.06,0.03,0.06,0.06
				S36.54,44.07,36.51,44.07z"/>
		</g>
		<g>
			<path class="st0" d="M31.78,55.49c-0.02,0-0.03-0.01-0.05-0.02L8.9,32.64c-0.03-0.03-0.03-0.07,0-0.09
				c0.03-0.03,0.07-0.03,0.09,0l22.83,22.83c0.03,0.03,0.03,0.07,0,0.09C31.81,55.48,31.79,55.49,31.78,55.49z"/>
		</g>
		<g>
			<path class="st0" d="M8.95,55.49c-0.02,0-0.03-0.01-0.05-0.02c-0.03-0.03-0.03-0.07,0-0.09l22.83-22.83
				c0.03-0.03,0.07-0.03,0.09,0c0.03,0.03,0.03,0.07,0,0.09L9,55.47C8.98,55.48,8.97,55.49,8.95,55.49z"/>
		</g>
		<g>
			<path class="st0" d="M5.51,50.39c-0.03,0-0.05-0.01-0.06-0.04c-0.01-0.03,0-0.07,0.03-0.09l29.71-12.64
				c0.03-0.01,0.07,0,0.09,0.03c0.01,0.03,0,0.07-0.03,0.09L5.54,50.39C5.53,50.39,5.52,50.39,5.51,50.39z"/>
		</g>
		<g>
			<path class="st0" d="M35.38,50c-0.01,0-0.02,0-0.02,0L5.32,38.15c-0.03-0.01-0.05-0.05-0.04-0.08c0.01-0.03,0.05-0.05,0.08-0.04
				L35.4,49.87c0.03,0.01,0.05,0.05,0.04,0.08C35.43,49.98,35.41,50,35.38,50z"/>
		</g>
		<g>
			<path class="st0" d="M26.66,58.94c-0.03,0-0.05-0.01-0.06-0.04L14.01,29.17c-0.01-0.03,0-0.07,0.03-0.09
				c0.03-0.01,0.07,0,0.09,0.03l12.59,29.73c0.01,0.03,0,0.07-0.03,0.08C26.68,58.94,26.67,58.94,26.66,58.94z"/>
		</g>
		<g>
			<path class="st0" d="M14.67,59.18c-0.01,0-0.02,0-0.02,0c-0.03-0.01-0.05-0.05-0.04-0.08L26,28.89c0.01-0.03,0.05-0.05,0.08-0.04
				c0.03,0.01,0.05,0.05,0.04,0.08l-11.4,30.2C14.72,59.16,14.69,59.18,14.67,59.18z"/>
		</g>
		<g>
			<circle class="st0" cx="20.36" cy="43.88" r="3.14"/>
		</g>
	</g>
	<g>
		<circle class="st0" cx="79.64" cy="44.11" r="3.14"/>
	</g>
	<g>
		<g>
			<path class="st0" d="M79.64,27.03c2.28,0,4.48,0.45,6.56,1.32c2.01,0.85,3.81,2.06,5.36,3.61c1.55,1.55,2.76,3.35,3.61,5.36
				c0.88,2.08,1.32,4.28,1.32,6.56c0,2.28-0.45,4.48-1.32,6.56c-0.85,2.01-2.06,3.81-3.61,5.36c-1.55,1.55-3.35,2.76-5.36,3.61
				c-2.08,0.88-4.28,1.32-6.56,1.32s-4.48-0.45-6.56-1.32c-2.01-0.85-3.81-2.06-5.36-3.61c-1.55-1.55-2.76-3.35-3.61-5.36
				c-0.88-2.08-1.32-4.28-1.32-6.56c0-2.28,0.45-4.48,1.32-6.56c0.85-2.01,2.06-3.81,3.61-5.36c1.55-1.55,3.35-2.76,5.36-3.61
				C75.15,27.48,77.36,27.03,79.64,27.03 M79.64,24.96c-10.45,0-18.92,8.47-18.92,18.92S69.19,62.8,79.64,62.8
				s18.92-8.47,18.92-18.92S90.09,24.96,79.64,24.96L79.64,24.96z"/>
		</g>
	</g>
	<g>
		<path class="st1" d="M79.64,28.38c2.09,0,4.12,0.41,6.03,1.22c1.85,0.78,3.5,1.9,4.93,3.32c1.42,1.42,2.54,3.08,3.32,4.93
			c0.81,1.91,1.22,3.94,1.22,6.03c0,2.09-0.41,4.12-1.22,6.03c-0.78,1.85-1.9,3.5-3.32,4.93c-1.42,1.42-3.08,2.54-4.93,3.32
			c-1.91,0.81-3.94,1.22-6.03,1.22c-2.09,0-4.12-0.41-6.03-1.22c-1.85-0.78-3.5-1.9-4.93-3.32c-1.42-1.42-2.54-3.08-3.32-4.93
			c-0.81-1.91-1.22-3.94-1.22-6.03c0-2.09,0.41-4.12,1.22-6.03c0.78-1.85,1.9-3.5,3.32-4.93c1.42-1.42,3.08-2.54,4.93-3.32
			C75.51,28.79,77.54,28.38,79.64,28.38 M79.64,26.95c-9.35,0-16.92,7.58-16.92,16.92S70.29,60.8,79.64,60.8s16.92-7.58,16.92-16.92
			S88.98,26.95,79.64,26.95L79.64,26.95z"/>
		<path class="st0" d="M79.64,60.87c-2.29,0-4.52-0.45-6.61-1.34c-2.02-0.86-3.84-2.08-5.4-3.64c-1.56-1.56-2.79-3.38-3.64-5.4
			c-0.89-2.09-1.34-4.32-1.34-6.61c0-2.29,0.45-4.52,1.34-6.61c0.86-2.02,2.08-3.84,3.64-5.4c1.56-1.56,3.38-2.79,5.4-3.64
			c2.09-0.89,4.32-1.34,6.61-1.34c2.29,0,4.52,0.45,6.61,1.34c2.02,0.86,3.84,2.08,5.4,3.64c1.56,1.56,2.79,3.38,3.64,5.4
			c0.89,2.09,1.34,4.32,1.34,6.61c0,2.29-0.45,4.52-1.34,6.61c-0.86,2.02-2.08,3.84-3.64,5.4c-1.56,1.56-3.38,2.79-5.4,3.64
			C84.15,60.42,81.93,60.87,79.64,60.87z M79.64,27.02c-9.3,0-16.86,7.56-16.86,16.86c0,9.3,7.56,16.86,16.86,16.86
			s16.86-7.56,16.86-16.86C96.49,34.58,88.93,27.02,79.64,27.02z M79.64,59.44c-2.1,0-4.14-0.41-6.06-1.22
			c-1.85-0.78-3.52-1.91-4.95-3.34c-1.43-1.43-2.55-3.09-3.34-4.95c-0.81-1.92-1.22-3.96-1.22-6.06c0-2.1,0.41-4.14,1.22-6.06
			c0.78-1.85,1.91-3.52,3.34-4.95c1.43-1.43,3.09-2.55,4.95-3.34c1.92-0.81,3.96-1.22,6.06-1.22c2.1,0,4.14,0.41,6.06,1.22
			c1.85,0.78,3.52,1.91,4.95,3.34c1.43,1.43,2.55,3.09,3.34,4.95c0.81,1.92,1.22,3.96,1.22,6.06c0,2.1-0.41,4.14-1.22,6.06
			c-0.78,1.85-1.91,3.52-3.34,4.95c-1.43,1.43-3.09,2.55-4.95,3.34C83.78,59.03,81.74,59.44,79.64,59.44z M79.64,28.45
			c-2.08,0-4.1,0.41-6.01,1.21c-1.84,0.78-3.49,1.89-4.91,3.31c-1.42,1.42-2.53,3.07-3.31,4.91c-0.8,1.9-1.21,3.92-1.21,6.01
			s0.41,4.1,1.21,6.01c0.78,1.84,1.89,3.49,3.31,4.91c1.42,1.42,3.07,2.53,4.91,3.31c1.9,0.8,3.92,1.21,6.01,1.21
			s4.1-0.41,6.01-1.21c1.84-0.78,3.49-1.89,4.91-3.31c1.42-1.42,2.53-3.07,3.31-4.91c0.8-1.9,1.21-3.92,1.21-6.01
			c0-2.08-0.41-4.1-1.21-6.01c-0.78-1.84-1.89-3.49-3.31-4.91c-1.42-1.42-3.07-2.53-4.91-3.31C83.74,28.85,81.72,28.45,79.64,28.45z
			"/>
	</g>
	<g>
		<path class="st0" d="M52.92,35.51c-0.85,0-1.71-0.06-2.59-0.18c-1.76-0.24-3.57-0.73-5.38-1.44c-3.07-1.21-5.08-2.66-5.16-2.72
			c-0.45-0.33-0.55-0.97-0.22-1.42c0.33-0.45,0.96-0.55,1.42-0.23l0,0c0.02,0.01,1.92,1.38,4.76,2.49c2.58,1.01,6.49,2.02,10.5,1.08
			c0.55-0.13,1.09,0.21,1.22,0.76c0.13,0.55-0.21,1.09-0.76,1.22C55.49,35.37,54.22,35.51,52.92,35.51z"/>
	</g>
	<g>
		<path class="st0" d="M19.69,43.19c-0.27,0-0.55-0.1-0.76-0.3c-0.45-0.42-0.47-1.12-0.05-1.57L36.99,22.1
			c0.42-0.45,1.12-0.47,1.57-0.05c0.45,0.42,0.47,1.12,0.05,1.57L20.49,42.84C20.28,43.07,19.98,43.19,19.69,43.19z"/>
	</g>
	<g>
		<path class="st0" d="M43.69,41.38c-0.43,0-0.82-0.27-0.96-0.7l-9-27.34c-0.18-0.53,0.11-1.11,0.65-1.28
			c0.53-0.18,1.11,0.11,1.28,0.65l9,27.34c0.18,0.53-0.11,1.11-0.65,1.28C43.9,41.37,43.79,41.38,43.69,41.38z"/>
	</g>
	<g>
		<g>
			<path class="st1" d="M47.89,43.87c-0.24,0-0.48-0.09-0.66-0.27c-0.38-0.37-0.38-0.97-0.02-1.35L68.38,20.5
				c0.37-0.38,0.97-0.38,1.35-0.02c0.38,0.37,0.38,0.97,0.02,1.35L48.57,43.58C48.39,43.77,48.14,43.87,47.89,43.87z"/>
			<path class="st0" d="M47.89,43.93c-0.27,0-0.52-0.1-0.71-0.29c-0.4-0.39-0.41-1.04-0.02-1.44l21.17-21.75
				c0.19-0.19,0.44-0.3,0.71-0.31c0.27,0,0.53,0.1,0.72,0.29c0.4,0.39,0.41,1.04,0.02,1.44L48.62,43.63
				C48.43,43.83,48.17,43.93,47.89,43.93z M69.06,20.28c0,0-0.01,0-0.01,0c-0.24,0-0.46,0.1-0.62,0.27L47.25,42.3
				C47.09,42.47,47,42.69,47,42.93c0,0.24,0.1,0.46,0.27,0.62c0.17,0.16,0.39,0.25,0.62,0.25c0.24,0,0.47-0.1,0.64-0.27L69.7,21.78
				c0.34-0.35,0.33-0.91-0.02-1.25C69.52,20.37,69.3,20.28,69.06,20.28z"/>
		</g>
	</g>
	<g>
		<path class="st0" d="M78.98,43.93c-0.39,0-0.77-0.23-0.93-0.61L64.45,12.05c-0.12-0.28-0.11-0.6,0.03-0.87
			c0.14-0.27,0.39-0.46,0.68-0.53c1.3-0.29,4.97-1.58,4.81-3.55c-0.02-0.23-0.11-0.38-0.3-0.52c-0.61-0.45-2.04-0.63-3.92-0.49
			c-1.57,0.12-2.91,0.41-2.93,0.42c-0.55,0.12-1.09-0.22-1.21-0.77c-0.12-0.55,0.22-1.09,0.77-1.21c0.06-0.01,1.5-0.33,3.22-0.46
			c2.49-0.19,4.22,0.1,5.28,0.88c0.67,0.49,1.06,1.18,1.12,1.99c0.1,1.25-0.38,3.05-3.25,4.53c-0.7,0.36-1.41,0.64-1.98,0.82
			l13.13,30.21c0.22,0.51-0.01,1.11-0.53,1.34C79.25,43.91,79.11,43.93,78.98,43.93z"/>
	</g>
	<g>
		<circle class="st0" cx="62.47" cy="4.96" r="1.76"/>
	</g>
	<g>
		<path class="st0" d="M28.64,12.01L28.64,12.01c0,1.18,0.95,2.13,2.13,2.13h12.24c1.35,0,1.65-1.91,0.36-2.32
			c-3.84-1.21-8.8-2.37-12.83-1.94C29.46,10,28.64,10.92,28.64,12.01z"/>
	</g>
	<g>
		<path class="st0" d="M79.64,60.08c-0.04,0-0.06-0.03-0.06-0.06V27.74c0-0.04,0.03-0.06,0.06-0.06c0.04,0,0.06,0.03,0.06,0.06
			v32.28C79.7,60.06,79.67,60.08,79.64,60.08z"/>
	</g>
	<g>
		<path class="st0" d="M95.78,43.94H63.49c-0.04,0-0.06-0.03-0.06-0.06c0-0.04,0.03-0.06,0.06-0.06h32.28
			c0.04,0,0.06,0.03,0.06,0.06C95.84,43.91,95.81,43.94,95.78,43.94z"/>
	</g>
	<g>
		<path class="st0" d="M91.05,55.36c-0.02,0-0.03-0.01-0.05-0.02L68.18,32.51c-0.03-0.03-0.03-0.07,0-0.09
			c0.03-0.03,0.07-0.03,0.09,0L91.1,55.25c0.03,0.03,0.03,0.07,0,0.09C91.08,55.35,91.07,55.36,91.05,55.36z"/>
	</g>
	<g>
		<path class="st0" d="M68.22,55.36c-0.02,0-0.03-0.01-0.05-0.02c-0.03-0.03-0.03-0.07,0-0.09L91,32.42c0.03-0.03,0.07-0.03,0.09,0
			c0.03,0.03,0.03,0.07,0,0.09L68.27,55.34C68.26,55.35,68.24,55.36,68.22,55.36z"/>
	</g>
	<g>
		<path class="st0" d="M64.78,50.26c-0.03,0-0.05-0.01-0.06-0.04c-0.01-0.03,0-0.07,0.03-0.09L94.46,37.5
			c0.03-0.01,0.07,0,0.09,0.03c0.01,0.03,0,0.07-0.03,0.09L64.81,50.26C64.8,50.26,64.79,50.26,64.78,50.26z"/>
	</g>
	<g>
		<path class="st0" d="M94.65,49.86c-0.01,0-0.02,0-0.02,0L64.6,38.02c-0.03-0.01-0.05-0.05-0.04-0.08
			c0.01-0.03,0.05-0.05,0.08-0.04l30.03,11.84c0.03,0.01,0.05,0.05,0.04,0.08C94.7,49.85,94.68,49.86,94.65,49.86z"/>
	</g>
	<g>
		<path class="st0" d="M85.93,58.81c-0.03,0-0.05-0.01-0.06-0.04L73.28,29.04c-0.01-0.03,0-0.07,0.03-0.09
			c0.03-0.01,0.07,0,0.08,0.03l12.59,29.73c0.01,0.03,0,0.07-0.03,0.08C85.95,58.8,85.94,58.81,85.93,58.81z"/>
	</g>
	<g>
		<path class="st0" d="M73.94,59.05c-0.01,0-0.02,0-0.02,0c-0.03-0.01-0.05-0.05-0.04-0.08l11.4-30.2c0.01-0.03,0.05-0.05,0.08-0.04
			c0.03,0.01,0.05,0.05,0.04,0.08L74,59C73.99,59.03,73.96,59.05,73.94,59.05z"/>
	</g>
	<g>
		<g>
			<path class="st1" d="M47.86,48.23c-0.41,0.06-0.82,0.07-1.23,0.04l-25.89-2.15c-1.24-0.1-2.2-1.12-2.23-2.36
				c-0.03-1.23,0.86-2.29,2.07-2.47l0.03,0l25.73-3.56c1.49-0.21,3.01,0.23,4.16,1.21c1.15,0.97,1.83,2.4,1.87,3.91
				C52.45,45.51,50.51,47.83,47.86,48.23z"/>
		</g>
		<g>
			<path class="st0" d="M20.59,41.35c0.01,0,0.02,0,0.03,0l25.73-3.56c3.1-0.43,5.88,1.93,5.96,5.05v0c0.07,2.71-1.9,4.95-4.46,5.33
				c-0.39,0.06-0.8,0.07-1.22,0.04l-25.89-2.15c-1.2-0.1-2.14-1.09-2.17-2.3l0,0C18.54,42.56,19.41,41.52,20.59,41.35 M20.57,41.22
				L20.57,41.22c-1.25,0.19-2.16,1.28-2.13,2.54c0.03,1.28,1.02,2.32,2.29,2.42l25.89,2.15c0.42,0.03,0.84,0.02,1.25-0.04
				c2.68-0.4,4.64-2.75,4.57-5.46c-0.02-0.78-0.2-1.53-0.55-2.22c-0.33-0.67-0.78-1.25-1.35-1.73c-0.57-0.48-1.22-0.84-1.93-1.05
				c-0.74-0.22-1.51-0.28-2.28-0.17L20.6,41.21C20.59,41.22,20.58,41.22,20.57,41.22L20.57,41.22z"/>
		</g>
	</g>
	<g>
		<circle class="st2" cx="46.94" cy="42.98" r="4.34"/>
		<path class="st0" d="M47.59,47.35c-2.4,0.36-4.65-1.3-5.01-3.71c-0.36-2.4,1.3-4.65,3.71-5.01c2.4-0.36,4.65,1.3,5.01,3.71
			C51.66,44.74,49.99,46.99,47.59,47.35z M46.3,38.75c-2.33,0.35-3.95,2.53-3.6,4.87c0.35,2.33,2.53,3.95,4.87,3.6
			c2.33-0.35,3.95-2.53,3.6-4.87S48.64,38.4,46.3,38.75z"/>
	</g>
	<g>
		<polygon class="st0" points="45.49,40.05 48.4,39.62 46.76,42.09 48.72,41.8 46.49,46.73 46.46,43.32 45.05,43.53 		"/>
	</g>
</g>
</svg>
